<?xml version="1.0" encoding="iso-8859-1"?>
<!-- Generator: Adobe Illustrator 16.0.0, SVG Export Plug-In . SVG Version: 6.00 Build 0)  -->
<!DOCTYPE svg PUBLIC "-//W3C//DTD SVG 1.1//EN" "http://www.w3.org/Graphics/SVG/1.1/DTD/svg11.dtd">
<svg version="1.1" id="Capa_1" xmlns="http://www.w3.org/2000/svg" xmlns:xlink="http://www.w3.org/1999/xlink" x="0px" y="0px"
	 viewBox="0 0 204.498 204.498" style="enable-background:new 0 0 204.498 204.498;"
	 xml:space="preserve">
<g>
	<g>
		<path style="fill: #5BBD00" d="M75.992,43.211c10.882,0,19.711-12.623,19.711-23.501C95.703,8.823,86.874,0,75.992,0c-10.881,0-19.71,8.829-19.71,19.71
			C56.276,30.589,65.105,43.211,75.992,43.211z"/>
		<path style="fill: #5BBD00" d="M182.041,92.156h-17.287c-0.341-9.335-5.377-17.266-12.507-20.646c0.091-3.34-1.876-6.491-5.206-7.599l-37.399-12.471
			c-1.815-0.648-19.002-6.634-33.649-6.634c-15.832,0-28.266,6.957-28.789,7.252c-0.262,0.149-0.411,0.393-0.648,0.566
			c-0.436,0.311-0.841,0.643-1.203,1.042c-0.368,0.393-0.642,0.816-0.91,1.279c-0.149,0.262-0.387,0.441-0.518,0.722l-24.941,56.117
			c-1.745,3.934,0.024,8.543,3.958,10.291c1.029,0.463,2.11,0.67,3.17,0.67c2.986,0,5.836-1.729,7.127-4.628l20.932-47.124v46.26
			l-6.205,77.143c-0.411,5.152,3.422,9.664,8.574,10.072c0.25,0.018,0.505,0.03,0.761,0.03c4.819,0,8.917-3.714,9.31-8.604
			l5.605-69.715c1.16,0.512,2.43,0.805,3.772,0.805c1.34,0,2.618-0.293,3.772-0.816l5.605,69.721
			c0.393,4.896,4.491,8.604,9.31,8.604c0.256,0,0.506-0.007,0.758-0.03c5.145-0.414,8.988-4.927,8.574-10.072l-6.202-77.137V64.055
			c3.964,1.124,6.635,2.076,6.707,2.095c0.027,0.012,0.064,0.006,0.095,0.012c0.03,0.012,0.058,0.037,0.095,0.048l26.983,9
			c-4.262,4.095-7.051,10.108-7.295,16.928h-17.287c-2.283,0-4.161,1.879-4.161,4.159c0,2.289,1.129,4.162,2.502,4.162
			c1.367,0,2.859,1.839,3.31,4.092l5.852,29.295c0.451,2.247,2.698,4.086,4.981,4.086h49.961c2.29,0,4.53-1.839,4.981-4.086
			l5.852-29.295c0.45-2.253,1.942-4.092,3.312-4.092s2.496-1.873,2.496-4.162C186.2,94.035,184.337,92.156,182.041,92.156z
			 M134.99,76.33l7.118,2.372c0.822,0.268,1.656,0.399,2.473,0.399c2.947,0,5.62-1.742,6.936-4.466
			c5.766,3.032,9.803,9.697,10.12,17.521h-34.124C127.78,85.586,130.648,79.798,134.99,76.33z M133.827,129.589h-9.614v-9.621h9.614
			V129.589z M133.827,113.185h-9.614v-9.608h9.614V113.185z M149.379,129.589h-9.614v-9.621h9.614V129.589z M149.379,113.185h-9.614
			v-9.608h9.614V113.185z M164.937,129.589h-9.621v-9.621h9.621V129.589z M164.937,113.185h-9.621v-9.608h9.621V113.185z"/>
	</g>
</g>
<g>
</g>
<g>
</g>
<g>
</g>
<g>
</g>
<g>
</g>
<g>
</g>
<g>
</g>
<g>
</g>
<g>
</g>
<g>
</g>
<g>
</g>
<g>
</g>
<g>
</g>
<g>
</g>
<g>
</g>
</svg>
